<svg id="Layer_1" data-name="Layer 1" xmlns="http://www.w3.org/2000/svg" viewBox="0 0 16.08 16"><title>edit</title><path d="M14.84,10a.4.4,0,0,0-.4.4V14a1.2,1.2,0,0,1-1.2,1.2H2A1.2,1.2,0,0,1,.8,14V3.56A1.2,1.2,0,0,1,2,2.36H5.56a.4.4,0,1,0,0-.8H2a2,2,0,0,0-2,2V14a2,2,0,0,0,2,2H13.24a2,2,0,0,0,2-2V10.44A.4.4,0,0,0,14.84,10Z"/><path d="M15.08.53a1.78,1.78,0,0,0-2.54,0L5.39,7.67a.4.4,0,0,0-.1.18l-.94,3.39a.4.4,0,0,0,.49.49l3.39-.94a.32.32,0,0,0,.18-.1l7.14-7.14a1.79,1.79,0,0,0,0-2.55ZM6.26,7.93l5.85-5.84L14,4,8.15,9.82Zm-.37.76,1.5,1.51-2.08.57ZM15,3l-.43.43L12.68,1.52l.42-.43a1,1,0,0,1,1.42,0l.47.47A1,1,0,0,1,15,3Z"/></svg>